# xmcd CD database file
# Copyright (C) 1997 Ti Kan
#
# Track frame offsets:
#  150
#  17307
#  38122
#  56840
#  73147
#  91052
#  105010
#  120762
#  135652
#  151755
#  172117
#  195285
#  215612
#  233162
#  253122
#  270555
#  284382
#  297347
#  313905
#
# Disc length: 4420 seconds
#
# Revision: 1
# Processed by: cddbd v1.4b41PL1 Copyright (c) Steve Scherf et al.
# Submitted via: CDWizzard Release:4.30
#
DISCID=04114213
DTITLE=Various Artist - Hits Zone Summer 97-Disc 2
DYEAR=1900
DGENRE=
TTITLE0=If I Never See You  Again-Wet Wet Wet
TTITLE1=Staring At The Sun-U2
TTITLE2=Halo-Texas
TTITLE3=Waltzing Along-James
TTITLE4=Guiding Star-Cast
TTITLE5=How High-The Charlatans
TTITLE6=Come Back Brighter-Reef
TTITLE7=Love Fool-The Cardigans
TTITLE8=Toxygene-Orb
TTITLE9=The Saint-Orbital
TTITLE10=Air We Breathe-Alisha's Attic
TTITLE11=Brazen (Weep)-Skunk Anansie
TTITLE12=Susan's House-Eels
TTITLE13=Star-Primal Scream
TTITLE14=What Do You Want From Me?-Monaco
TTITLE15=Staying Out For The Summer-Dodgy
TTITLE16=Good Intentions-Livingstone
TTITLE17=Not Where It's At-Del Amitri
TTITLE18=Elegantly Wasted-INXS
EXTD=
EXTT0=
EXTT1=
EXTT2=
EXTT3=
EXTT4=
EXTT5=
EXTT6=
EXTT7=
EXTT8=
EXTT9=
EXTT10=
EXTT11=
EXTT12=
EXTT13=
EXTT14=
EXTT15=
EXTT16=
EXTT17=
EXTT18=
PLAYORDER=
